<svg width="32" height="32" viewBox="0 0 32 32" fill="none" xmlns="http://www.w3.org/2000/svg">
<path d="M26 23C26 23.5304 25.7893 24.0391 25.4142 24.4142C25.0391 24.7893 24.5304 25 24 25H8C7.46957 25 6.96086 24.7893 6.58579 24.4142C6.21071 24.0391 6 23.5304 6 23V9C6 8.46957 6.21071 7.96086 6.58579 7.58579C6.96086 7.21071 7.46957 7 8 7H13L15 10H24C24.5304 10 25.0391 10.2107 25.4142 10.5858C25.7893 10.9609 26 11.4696 26 12V23Z" stroke="url(#paint0_linear_606_2060)" stroke-width="1.503" stroke-linecap="round" stroke-linejoin="round"/>
<path d="M26 23C26 23.5304 25.7893 24.0391 25.4142 24.4142C25.0391 24.7893 24.5304 25 24 25H8C7.46957 25 6.96086 24.7893 6.58579 24.4142C6.21071 24.0391 6 23.5304 6 23V9C6 8.46957 6.21071 7.96086 6.58579 7.58579C6.96086 7.21071 7.46957 7 8 7H13L15 10H24C24.5304 10 25.0391 10.2107 25.4142 10.5858C25.7893 10.9609 26 11.4696 26 12V23Z" stroke="url(#paint1_linear_606_2060)" stroke-width="1.503" stroke-linecap="round" stroke-linejoin="round"/>
<path fill-rule="evenodd" clip-rule="evenodd" d="M14.4375 17.6875C14.4375 15.5129 16.2004 13.75 18.375 13.75C20.5496 13.75 22.3125 15.5129 22.3125 17.6875C22.3125 19.8621 20.5496 21.625 18.375 21.625C16.2004 21.625 14.4375 19.8621 14.4375 17.6875ZM18.375 12.625C15.5791 12.625 13.3125 14.8916 13.3125 17.6875C13.3125 20.4834 15.5791 22.75 18.375 22.75C19.5703 22.75 20.6689 22.3357 21.535 21.6429L23.321 23.429C23.5407 23.6487 23.8968 23.6487 24.1165 23.429C24.3362 23.2093 24.3362 22.8532 24.1165 22.6335L22.3304 20.8474C23.0232 19.9814 23.4375 18.8828 23.4375 17.6875C23.4375 14.8916 21.1709 12.625 18.375 12.625Z" fill="#FF5301"/>
<path fill-rule="evenodd" clip-rule="evenodd" d="M14.4375 17.6875C14.4375 15.5129 16.2004 13.75 18.375 13.75C20.5496 13.75 22.3125 15.5129 22.3125 17.6875C22.3125 19.8621 20.5496 21.625 18.375 21.625C16.2004 21.625 14.4375 19.8621 14.4375 17.6875ZM18.375 12.625C15.5791 12.625 13.3125 14.8916 13.3125 17.6875C13.3125 20.4834 15.5791 22.75 18.375 22.75C19.5703 22.75 20.6689 22.3357 21.535 21.6429L23.321 23.429C23.5407 23.6487 23.8968 23.6487 24.1165 23.429C24.3362 23.2093 24.3362 22.8532 24.1165 22.6335L22.3304 20.8474C23.0232 19.9814 23.4375 18.8828 23.4375 17.6875C23.4375 14.8916 21.1709 12.625 18.375 12.625Z" fill="url(#paint2_linear_606_2060)"/>
<path fill-rule="evenodd" clip-rule="evenodd" d="M14.4375 17.6875C14.4375 15.5129 16.2004 13.75 18.375 13.75C20.5496 13.75 22.3125 15.5129 22.3125 17.6875C22.3125 19.8621 20.5496 21.625 18.375 21.625C16.2004 21.625 14.4375 19.8621 14.4375 17.6875ZM18.375 12.625C15.5791 12.625 13.3125 14.8916 13.3125 17.6875C13.3125 20.4834 15.5791 22.75 18.375 22.75C19.5703 22.75 20.6689 22.3357 21.535 21.6429L23.321 23.429C23.5407 23.6487 23.8968 23.6487 24.1165 23.429C24.3362 23.2093 24.3362 22.8532 24.1165 22.6335L22.3304 20.8474C23.0232 19.9814 23.4375 18.8828 23.4375 17.6875C23.4375 14.8916 21.1709 12.625 18.375 12.625Z" fill="url(#paint3_linear_606_2060)"/>
<defs>
<linearGradient id="paint0_linear_606_2060" x1="8.82967" y1="16" x2="16.9704" y2="29.9859" gradientUnits="userSpaceOnUse">
<stop stop-color="#FFAE00"/>
<stop offset="1" stop-color="#FF3600"/>
</linearGradient>
<linearGradient id="paint1_linear_606_2060" x1="6.94122" y1="9.05518" x2="16.4514" y2="26.0246" gradientUnits="userSpaceOnUse">
<stop stop-color="#B3B3B3"/>
<stop offset="1" stop-color="#808080"/>
</linearGradient>
<linearGradient id="paint2_linear_606_2060" x1="13.8287" y1="13.8774" x2="19.9261" y2="23.6691" gradientUnits="userSpaceOnUse">
<stop stop-color="#EFEFEF"/>
<stop offset="1" stop-color="#808080"/>
</linearGradient>
<linearGradient id="paint3_linear_606_2060" x1="13.8287" y1="13.8774" x2="19.9261" y2="23.6691" gradientUnits="userSpaceOnUse">
<stop stop-color="#B3B3B3"/>
<stop offset="1" stop-color="#808080"/>
</linearGradient>
</defs>
</svg>
