<svg width="32" height="32" viewBox="0 0 32 32" fill="none" xmlns="http://www.w3.org/2000/svg">
<path fill-rule="evenodd" clip-rule="evenodd" d="M13.6622 12.3643C16.1812 12.9228 18.4604 15.4806 18.922 17.6403C19.5394 20.5252 18.895 22.679 16.6912 24.7789C14.6652 26.7116 11.1152 26.2984 9.45789 25.1974C7.79555 24.096 6.65068 23.063 6.90693 20.5699C7.17766 17.9373 9.83802 16.6273 11.6113 16.7794C13.7281 16.9573 14.6947 18.6027 14.2456 19.7888C13.7341 21.1479 12.2611 21.8507 11.4869 21.0759C10.37 19.9652 11.2606 19.1223 11.2606 19.1223C11.2606 19.1223 7.83601 19.6152 9.37098 22.6231C10.7836 25.3899 15.374 24.1402 16.6228 21.2436C17.3181 19.6332 18.2457 15.6629 12.4559 14.2197C9.0473 13.3681 6.00233 15.7275 4.66666 18.5439V15.1943C5.61471 14.1876 6.62921 13.5124 7.23311 13.1177C9.28956 11.7722 11.0428 11.7883 13.6622 12.3643ZM4.66666 23.8116V24.6666C4.66666 26.1394 5.86056 27.3333 7.33332 27.3333L8.4439 27.3333C8.16468 27.186 7.90793 27.0358 7.68366 26.8871C6.57476 26.1492 5.39194 25.1056 4.66666 23.8116ZM4.66666 10.3333V12.445C5.60293 11.6391 6.3954 11.2056 6.53543 11.129C6.54668 11.1229 6.55371 11.119 6.55628 11.1175C7.15594 10.779 7.74404 10.5227 8.31673 10.3333H4.66666ZM14.327 10.3333H27.3333V24.6666C27.3333 26.1223 26.1669 27.3056 24.7177 27.3328H17.4405C17.4558 27.3241 17.471 27.3153 17.4863 27.3066C17.6478 27.2144 17.8089 27.1224 17.9699 27.0159C22.0024 24.3419 23.0364 19.0494 21.8416 16.2797C20.8161 13.8998 18.4405 11.5851 15.417 10.6557C15.4001 10.6505 15.383 10.6452 15.3659 10.64C15.0531 10.5435 14.7055 10.4363 14.327 10.3333ZM7.31838 4.66667L7.33332 4.66663H24.6667L24.6816 4.66667H7.31838Z" fill="#F26722"/>
<path fill-rule="evenodd" clip-rule="evenodd" d="M13.6622 12.3643C16.1812 12.9228 18.4604 15.4806 18.922 17.6403C19.5394 20.5252 18.895 22.679 16.6912 24.7789C14.6652 26.7116 11.1152 26.2984 9.45789 25.1974C7.79555 24.096 6.65068 23.063 6.90693 20.5699C7.17766 17.9373 9.83802 16.6273 11.6113 16.7794C13.7281 16.9573 14.6947 18.6027 14.2456 19.7888C13.7341 21.1479 12.2611 21.8507 11.4869 21.0759C10.37 19.9652 11.2606 19.1223 11.2606 19.1223C11.2606 19.1223 7.83601 19.6152 9.37098 22.6231C10.7836 25.3899 15.374 24.1402 16.6228 21.2436C17.3181 19.6332 18.2457 15.6629 12.4559 14.2197C9.0473 13.3681 6.00233 15.7275 4.66666 18.5439V15.1943C5.61471 14.1876 6.62921 13.5124 7.23311 13.1177C9.28956 11.7722 11.0428 11.7883 13.6622 12.3643ZM4.66666 23.8116V24.6666C4.66666 26.1394 5.86056 27.3333 7.33332 27.3333L8.4439 27.3333C8.16468 27.186 7.90793 27.0358 7.68366 26.8871C6.57476 26.1492 5.39194 25.1056 4.66666 23.8116ZM4.66666 10.3333V12.445C5.60293 11.6391 6.3954 11.2056 6.53543 11.129C6.54668 11.1229 6.55371 11.119 6.55628 11.1175C7.15594 10.779 7.74404 10.5227 8.31673 10.3333H4.66666ZM14.327 10.3333H27.3333V24.6666C27.3333 26.1223 26.1669 27.3056 24.7177 27.3328H17.4405C17.4558 27.3241 17.471 27.3153 17.4863 27.3066C17.6478 27.2144 17.8089 27.1224 17.9699 27.0159C22.0024 24.3419 23.0364 19.0494 21.8416 16.2797C20.8161 13.8998 18.4405 11.5851 15.417 10.6557C15.4001 10.6505 15.383 10.6452 15.3659 10.64C15.0531 10.5435 14.7055 10.4363 14.327 10.3333ZM7.31838 4.66667L7.33332 4.66663H24.6667L24.6816 4.66667H7.31838Z" fill="url(#paint0_linear_607_2123)"/>
<path fill-rule="evenodd" clip-rule="evenodd" d="M5.99999 4.66663C5.26361 4.66663 4.66666 5.26358 4.66666 5.99996V8.91663H27.3333V5.99996C27.3333 5.26358 26.7364 4.66663 26 4.66663H5.99999ZM7.08332 8.08333C7.63561 8.08333 8.08332 7.63562 8.08332 7.08333C8.08332 6.53105 7.63561 6.08333 7.08332 6.08333C6.53104 6.08333 6.08332 6.53105 6.08332 7.08333C6.08332 7.63562 6.53104 8.08333 7.08332 8.08333ZM11.0833 7.08329C11.0833 7.63558 10.6356 8.08329 10.0833 8.08329C9.53103 8.08329 9.08332 7.63558 9.08332 7.08329C9.08332 6.53101 9.53103 6.08329 10.0833 6.08329C10.6356 6.08329 11.0833 6.53101 11.0833 7.08329ZM13.0833 8.08329C13.6356 8.08329 14.0833 7.63558 14.0833 7.08329C14.0833 6.53101 13.6356 6.08329 13.0833 6.08329C12.531 6.08329 12.0833 6.53101 12.0833 7.08329C12.0833 7.63558 12.531 8.08329 13.0833 8.08329Z" fill="#B3B3B3"/>
<defs>
<linearGradient id="paint0_linear_607_2123" x1="5.63337" y1="9.13701" x2="17.0522" y2="27.4745" gradientUnits="userSpaceOnUse">
<stop stop-color="#FFAE00"/>
<stop offset="1" stop-color="#FF3600"/>
</linearGradient>
</defs>
</svg>
