<svg width="32" height="32" viewBox="0 0 32 32" fill="none" xmlns="http://www.w3.org/2000/svg">
<g clip-path="url(#clip0_606_2058)">
<path fill-rule="evenodd" clip-rule="evenodd" d="M6.27775 10.6151C6.27775 9.96858 6.80184 9.4445 7.44833 9.4445H18.4698C19.1163 9.4445 19.6404 9.96858 19.6404 10.6151V20.6346C19.6404 21.2811 19.1163 21.8052 18.4698 21.8052H7.44833C6.80184 21.8052 6.27775 21.2811 6.27775 20.6346V10.6151ZM7.44833 7.77783C5.88136 7.77783 4.61109 9.04811 4.61109 10.6151V20.6346C4.61109 22.2016 5.88136 23.4718 7.44833 23.4718H18.4698C20.0368 23.4718 21.307 22.2016 21.307 20.6346V17.2447C21.3598 17.2826 21.4131 17.3207 21.4666 17.3589L21.5083 17.3887L24.8946 19.8075L24.9424 19.8416C25.3627 20.1419 25.7513 20.4196 26.0826 20.5896C26.4238 20.7646 26.9547 20.9579 27.507 20.6736C28.0594 20.3894 28.2107 19.845 28.2666 19.4657C28.3208 19.0973 28.3207 18.6197 28.3207 18.1031V18.1031L28.3207 18.0444V13.2067L28.3207 13.1481V13.148C28.3207 12.6314 28.3208 12.1538 28.2666 11.7854C28.2107 11.4061 28.0594 10.8618 27.507 10.5775C26.9547 10.2933 26.4238 10.4865 26.0826 10.6616C25.7513 10.8315 25.3627 11.1092 24.9424 11.4095L24.8946 11.4436L21.5083 13.8625L21.4666 13.8922L21.4666 13.8922C21.4131 13.9305 21.3597 13.9685 21.307 14.0064V10.6151C21.307 9.04811 20.0368 7.77783 18.4698 7.77783H7.44833ZM25.8634 12.7999C26.2079 12.5538 26.4525 12.3804 26.64 12.2623C26.6529 12.4835 26.654 12.7833 26.654 13.2067V18.0444C26.654 18.4678 26.6529 18.7676 26.64 18.9888C26.4525 18.8707 26.2079 18.6974 25.8634 18.4513L22.477 16.0324C22.2206 15.8493 22.0464 15.7236 21.9241 15.6256C22.0464 15.5276 22.2206 15.4018 22.477 15.2187L25.8634 12.7999ZM26.9543 12.0961C26.9548 12.096 26.9551 12.0959 26.9551 12.0959C26.9551 12.0958 26.9538 12.0961 26.951 12.0969C26.9525 12.0966 26.9537 12.0963 26.9543 12.0961ZM26.5938 11.9131C26.5927 11.9106 26.5923 11.9092 26.5923 11.9092C26.5923 11.9091 26.5929 11.9104 26.5938 11.9131ZM26.5923 19.342C26.5923 19.3419 26.5927 19.3405 26.5938 19.338C26.5929 19.3408 26.5923 19.342 26.5923 19.342ZM26.951 19.1542C26.9536 19.1548 26.9551 19.1552 26.9551 19.1553C26.9551 19.1553 26.9538 19.155 26.951 19.1542Z" fill="white" fill-opacity="0.33"/>
<path fill-rule="evenodd" clip-rule="evenodd" d="M6.27775 10.6151C6.27775 9.96858 6.80184 9.4445 7.44833 9.4445H18.4698C19.1163 9.4445 19.6404 9.96858 19.6404 10.6151V20.6346C19.6404 21.2811 19.1163 21.8052 18.4698 21.8052H7.44833C6.80184 21.8052 6.27775 21.2811 6.27775 20.6346V10.6151ZM7.44833 7.77783C5.88136 7.77783 4.61109 9.04811 4.61109 10.6151V20.6346C4.61109 22.2016 5.88136 23.4718 7.44833 23.4718H18.4698C20.0368 23.4718 21.307 22.2016 21.307 20.6346V17.2447C21.3598 17.2826 21.4131 17.3207 21.4666 17.3589L21.5083 17.3887L24.8946 19.8075L24.9424 19.8416C25.3627 20.1419 25.7513 20.4196 26.0826 20.5896C26.4238 20.7646 26.9547 20.9579 27.507 20.6736C28.0594 20.3894 28.2107 19.845 28.2666 19.4657C28.3208 19.0973 28.3207 18.6197 28.3207 18.1031V18.1031L28.3207 18.0444V13.2067L28.3207 13.1481V13.148C28.3207 12.6314 28.3208 12.1538 28.2666 11.7854C28.2107 11.4061 28.0594 10.8618 27.507 10.5775C26.9547 10.2933 26.4238 10.4865 26.0826 10.6616C25.7513 10.8315 25.3627 11.1092 24.9424 11.4095L24.8946 11.4436L21.5083 13.8625L21.4666 13.8922L21.4666 13.8922C21.4131 13.9305 21.3597 13.9685 21.307 14.0064V10.6151C21.307 9.04811 20.0368 7.77783 18.4698 7.77783H7.44833ZM25.8634 12.7999C26.2079 12.5538 26.4525 12.3804 26.64 12.2623C26.6529 12.4835 26.654 12.7833 26.654 13.2067V18.0444C26.654 18.4678 26.6529 18.7676 26.64 18.9888C26.4525 18.8707 26.2079 18.6974 25.8634 18.4513L22.477 16.0324C22.2206 15.8493 22.0464 15.7236 21.9241 15.6256C22.0464 15.5276 22.2206 15.4018 22.477 15.2187L25.8634 12.7999ZM26.9543 12.0961C26.9548 12.096 26.9551 12.0959 26.9551 12.0959C26.9551 12.0958 26.9538 12.0961 26.951 12.0969C26.9525 12.0966 26.9537 12.0963 26.9543 12.0961ZM26.5938 11.9131C26.5927 11.9106 26.5923 11.9092 26.5923 11.9092C26.5923 11.9091 26.5929 11.9104 26.5938 11.9131ZM26.5923 19.342C26.5923 19.3419 26.5927 19.3405 26.5938 19.338C26.5929 19.3408 26.5923 19.342 26.5923 19.342ZM26.951 19.1542C26.9536 19.1548 26.9551 19.1552 26.9551 19.1553C26.9551 19.1553 26.9538 19.155 26.951 19.1542Z" fill="url(#paint0_linear_606_2058)"/>
<path fill-rule="evenodd" clip-rule="evenodd" d="M6.27775 10.6151C6.27775 9.96858 6.80184 9.4445 7.44833 9.4445H18.4698C19.1163 9.4445 19.6404 9.96858 19.6404 10.6151V20.6346C19.6404 21.2811 19.1163 21.8052 18.4698 21.8052H7.44833C6.80184 21.8052 6.27775 21.2811 6.27775 20.6346V10.6151ZM7.44833 7.77783C5.88136 7.77783 4.61109 9.04811 4.61109 10.6151V20.6346C4.61109 22.2016 5.88136 23.4718 7.44833 23.4718H18.4698C20.0368 23.4718 21.307 22.2016 21.307 20.6346V17.2447C21.3598 17.2826 21.4131 17.3207 21.4666 17.3589L21.5083 17.3887L24.8946 19.8075L24.9424 19.8416C25.3627 20.1419 25.7513 20.4196 26.0826 20.5896C26.4238 20.7646 26.9547 20.9579 27.507 20.6736C28.0594 20.3894 28.2107 19.845 28.2666 19.4657C28.3208 19.0973 28.3207 18.6197 28.3207 18.1031V18.1031L28.3207 18.0444V13.2067L28.3207 13.1481V13.148C28.3207 12.6314 28.3208 12.1538 28.2666 11.7854C28.2107 11.4061 28.0594 10.8618 27.507 10.5775C26.9547 10.2933 26.4238 10.4865 26.0826 10.6616C25.7513 10.8315 25.3627 11.1092 24.9424 11.4095L24.8946 11.4436L21.5083 13.8625L21.4666 13.8922L21.4666 13.8922C21.4131 13.9305 21.3597 13.9685 21.307 14.0064V10.6151C21.307 9.04811 20.0368 7.77783 18.4698 7.77783H7.44833ZM25.8634 12.7999C26.2079 12.5538 26.4525 12.3804 26.64 12.2623C26.6529 12.4835 26.654 12.7833 26.654 13.2067V18.0444C26.654 18.4678 26.6529 18.7676 26.64 18.9888C26.4525 18.8707 26.2079 18.6974 25.8634 18.4513L22.477 16.0324C22.2206 15.8493 22.0464 15.7236 21.9241 15.6256C22.0464 15.5276 22.2206 15.4018 22.477 15.2187L25.8634 12.7999ZM26.9543 12.0961C26.9548 12.096 26.9551 12.0959 26.9551 12.0959C26.9551 12.0958 26.9538 12.0961 26.951 12.0969C26.9525 12.0966 26.9537 12.0963 26.9543 12.0961ZM26.5938 11.9131C26.5927 11.9106 26.5923 11.9092 26.5923 11.9092C26.5923 11.9091 26.5929 11.9104 26.5938 11.9131ZM26.5923 19.342C26.5923 19.3419 26.5927 19.3405 26.5938 19.338C26.5929 19.3408 26.5923 19.342 26.5923 19.342ZM26.951 19.1542C26.9536 19.1548 26.9551 19.1552 26.9551 19.1553C26.9551 19.1553 26.9538 19.155 26.951 19.1542Z" fill="url(#paint1_linear_606_2058)"/>
</g>
<defs>
<linearGradient id="paint0_linear_606_2058" x1="5.72689" y1="9.56972" x2="12.577" y2="26.1887" gradientUnits="userSpaceOnUse">
<stop stop-color="#EFEFEF"/>
<stop offset="1" stop-color="#808080"/>
</linearGradient>
<linearGradient id="paint1_linear_606_2058" x1="5.72689" y1="9.56972" x2="12.577" y2="26.1887" gradientUnits="userSpaceOnUse">
<stop stop-color="#B3B3B3"/>
<stop offset="1" stop-color="#808080"/>
</linearGradient>
<clipPath id="clip0_606_2058">
<rect width="25.3333" height="25.3333" fill="white" transform="translate(3.33332 3.33337)"/>
</clipPath>
</defs>
</svg>
