<svg width="32" height="32" viewBox="0 0 32 32" fill="none" xmlns="http://www.w3.org/2000/svg">
<path d="M7.44836 7.86609C5.93012 7.86609 4.69935 9.09686 4.69935 10.6151V20.6346C4.69935 22.1529 5.93012 23.3836 7.44836 23.3836H18.4698C19.9881 23.3836 21.2188 22.1529 21.2188 20.6346V16.5934C21.413 16.7544 21.6557 16.9277 21.9311 17.1245L24.9405 19.274C25.4343 19.6268 25.8395 19.9162 26.1725 20.0871C26.5101 20.2603 26.8855 20.3708 27.2537 20.1813C27.6219 19.9918 27.7501 19.6222 27.8054 19.2467C27.86 18.8765 27.8599 18.3786 27.8599 17.7716V13.4797C27.8599 12.8727 27.86 12.3748 27.8054 12.0045C27.7501 11.6291 27.6219 11.2594 27.2537 11.07C26.8855 10.8805 26.5101 10.991 26.1725 11.1642C25.8395 11.335 25.4344 11.6244 24.9405 11.9773L21.9311 14.1268C21.6557 14.3235 21.413 14.4969 21.2188 14.6579V10.6151C21.2188 9.09686 19.9881 7.86609 18.4698 7.86609H7.44836Z" fill="url(#paint0_linear_606_2059)"/>
<path d="M7.44836 7.86609C5.93012 7.86609 4.69935 9.09686 4.69935 10.6151V20.6346C4.69935 22.1529 5.93012 23.3836 7.44836 23.3836H18.4698C19.9881 23.3836 21.2188 22.1529 21.2188 20.6346V16.5934C21.413 16.7544 21.6557 16.9277 21.9311 17.1245L24.9405 19.274C25.4343 19.6268 25.8395 19.9162 26.1725 20.0871C26.5101 20.2603 26.8855 20.3708 27.2537 20.1813C27.6219 19.9918 27.7501 19.6222 27.8054 19.2467C27.86 18.8765 27.8599 18.3786 27.8599 17.7716V13.4797C27.8599 12.8727 27.86 12.3748 27.8054 12.0045C27.7501 11.6291 27.6219 11.2594 27.2537 11.07C26.8855 10.8805 26.5101 10.991 26.1725 11.1642C25.8395 11.335 25.4344 11.6244 24.9405 11.9773L21.9311 14.1268C21.6557 14.3235 21.413 14.4969 21.2188 14.6579V10.6151C21.2188 9.09686 19.9881 7.86609 18.4698 7.86609H7.44836Z" fill="url(#paint1_linear_606_2059)"/>
<g clip-path="url(#paint2_diamond_606_2059_clip_path)" data-figma-skip-parse="true"><g transform="matrix(-0.0315241 0.170693 -0.012398 -0.333022 26.5732 7.8661)"><rect x="0" y="0" width="611.067" height="306.727" fill="url(#paint2_diamond_606_2059)" opacity="1" shape-rendering="crispEdges"/><rect x="0" y="0" width="611.067" height="306.727" transform="scale(1 -1)" fill="url(#paint2_diamond_606_2059)" opacity="1" shape-rendering="crispEdges"/><rect x="0" y="0" width="611.067" height="306.727" transform="scale(-1 1)" fill="url(#paint2_diamond_606_2059)" opacity="1" shape-rendering="crispEdges"/><rect x="0" y="0" width="611.067" height="306.727" transform="scale(-1)" fill="url(#paint2_diamond_606_2059)" opacity="1" shape-rendering="crispEdges"/></g></g><path d="M7.44836 7.86609C5.93012 7.86609 4.69935 9.09686 4.69935 10.6151V20.6346C4.69935 22.1529 5.93012 23.3836 7.44836 23.3836H18.4698C19.9881 23.3836 21.2188 22.1529 21.2188 20.6346V16.5934C21.413 16.7544 21.6557 16.9277 21.9311 17.1245L24.9405 19.274C25.4343 19.6268 25.8395 19.9162 26.1725 20.0871C26.5101 20.2603 26.8855 20.3708 27.2537 20.1813C27.6219 19.9918 27.7501 19.6222 27.8054 19.2467C27.86 18.8765 27.8599 18.3786 27.8599 17.7716V13.4797C27.8599 12.8727 27.86 12.3748 27.8054 12.0045C27.7501 11.6291 27.6219 11.2594 27.2537 11.07C26.8855 10.8805 26.5101 10.991 26.1725 11.1642C25.8395 11.335 25.4344 11.6244 24.9405 11.9773L21.9311 14.1268C21.6557 14.3235 21.413 14.4969 21.2188 14.6579V10.6151C21.2188 9.09686 19.9881 7.86609 18.4698 7.86609H7.44836Z" data-figma-gradient-fill="{&#34;type&#34;:&#34;GRADIENT_DIAMOND&#34;,&#34;stops&#34;:[{&#34;color&#34;:{&#34;r&#34;:1.0,&#34;g&#34;:0.68235296010971069,&#34;b&#34;:0.0,&#34;a&#34;:1.0},&#34;position&#34;:0.0},{&#34;color&#34;:{&#34;r&#34;:1.0,&#34;g&#34;:0.21176470816135406,&#34;b&#34;:0.0,&#34;a&#34;:1.0},&#34;position&#34;:1.0}],&#34;stopsVar&#34;:[],&#34;transform&#34;:{&#34;m00&#34;:-63.048233032226562,&#34;m01&#34;:-24.796054840087891,&#34;m02&#34;:70.495346069335938,&#34;m10&#34;:341.38580322265625,&#34;m11&#34;:-666.04388427734375,&#34;m12&#34;:170.19514465332031},&#34;opacity&#34;:1.0,&#34;blendMode&#34;:&#34;NORMAL&#34;,&#34;visible&#34;:true}"/>
<path d="M7.44836 7.86609C5.93012 7.86609 4.69935 9.09686 4.69935 10.6151V20.6346C4.69935 22.1529 5.93012 23.3836 7.44836 23.3836H18.4698C19.9881 23.3836 21.2188 22.1529 21.2188 20.6346V16.5934C21.413 16.7544 21.6557 16.9277 21.9311 17.1245L24.9405 19.274C25.4343 19.6268 25.8395 19.9162 26.1725 20.0871C26.5101 20.2603 26.8855 20.3708 27.2537 20.1813C27.6219 19.9918 27.7501 19.6222 27.8054 19.2467C27.86 18.8765 27.8599 18.3786 27.8599 17.7716V13.4797C27.8599 12.8727 27.86 12.3748 27.8054 12.0045C27.7501 11.6291 27.6219 11.2594 27.2537 11.07C26.8855 10.8805 26.5101 10.991 26.1725 11.1642C25.8395 11.335 25.4344 11.6244 24.9405 11.9773L21.9311 14.1268C21.6557 14.3235 21.413 14.4969 21.2188 14.6579V10.6151C21.2188 9.09686 19.9881 7.86609 18.4698 7.86609H7.44836Z" fill="url(#paint3_linear_606_2059)"/>
<mask id="mask0_606_2059" style="mask-type:alpha" maskUnits="userSpaceOnUse" x="4" y="7" width="24" height="17">
<path d="M7.44836 7.86609C5.93012 7.86609 4.69935 9.09686 4.69935 10.6151V20.6346C4.69935 22.1529 5.93012 23.3836 7.44836 23.3836H18.4698C19.9881 23.3836 21.2188 22.1529 21.2188 20.6346V16.5934C21.413 16.7544 21.6557 16.9277 21.9311 17.1245L24.9405 19.274C25.4343 19.6268 25.8395 19.9162 26.1725 20.0871C26.5101 20.2603 26.8855 20.3708 27.2537 20.1813C27.6219 19.9918 27.7501 19.6222 27.8054 19.2467C27.86 18.8765 27.8599 18.3786 27.8599 17.7716V13.4797C27.8599 12.8727 27.86 12.3748 27.8054 12.0045C27.7501 11.6291 27.6219 11.2594 27.2537 11.07C26.8855 10.8805 26.5101 10.991 26.1725 11.1642C25.8395 11.335 25.4344 11.6244 24.9405 11.9773L21.9311 14.1268C21.6557 14.3235 21.413 14.4969 21.2188 14.6579V10.6151C21.2188 9.09686 19.9881 7.86609 18.4698 7.86609H7.44836Z" fill="url(#paint4_linear_606_2059)"/>
</mask>
<g mask="url(#mask0_606_2059)">
<path d="M7.00379 17.6667V13.788H7.82386V16.9906H9.48674V17.6667H7.00379ZM10.9566 13.788V17.6667H10.1365V13.788H10.9566ZM12.4387 13.788L13.3762 16.7349H13.4122L14.3516 13.788H15.2607L13.9236 17.6667H12.8667L11.5277 13.788H12.4387ZM15.8342 17.6667V13.788H18.4478V14.4641H16.6543V15.3883H18.3134V16.0645H16.6543V16.9906H18.4554V17.6667H15.8342Z" fill="white"/>
</g>
<defs>
<clipPath id="paint2_diamond_606_2059_clip_path"><path d="M7.44836 7.86609C5.93012 7.86609 4.69935 9.09686 4.69935 10.6151V20.6346C4.69935 22.1529 5.93012 23.3836 7.44836 23.3836H18.4698C19.9881 23.3836 21.2188 22.1529 21.2188 20.6346V16.5934C21.413 16.7544 21.6557 16.9277 21.9311 17.1245L24.9405 19.274C25.4343 19.6268 25.8395 19.9162 26.1725 20.0871C26.5101 20.2603 26.8855 20.3708 27.2537 20.1813C27.6219 19.9918 27.7501 19.6222 27.8054 19.2467C27.86 18.8765 27.8599 18.3786 27.8599 17.7716V13.4797C27.8599 12.8727 27.86 12.3748 27.8054 12.0045C27.7501 11.6291 27.6219 11.2594 27.2537 11.07C26.8855 10.8805 26.5101 10.991 26.1725 11.1642C25.8395 11.335 25.4344 11.6244 24.9405 11.9773L21.9311 14.1268C21.6557 14.3235 21.413 14.4969 21.2188 14.6579V10.6151C21.2188 9.09686 19.9881 7.86609 18.4698 7.86609H7.44836Z"/></clipPath><linearGradient id="paint0_linear_606_2059" x1="7.97619" y1="15.6249" x2="10.7692" y2="25.0215" gradientUnits="userSpaceOnUse">
<stop stop-color="#FFAE00"/>
<stop offset="1" stop-color="#FF3600"/>
</linearGradient>
<linearGradient id="paint1_linear_606_2059" x1="3.33572" y1="3.86479" x2="9.47361" y2="25.605" gradientUnits="userSpaceOnUse">
<stop stop-color="#FF0000"/>
<stop offset="1" stop-color="#FF9500"/>
</linearGradient>
<linearGradient id="paint2_diamond_606_2059" x1="0" y1="0" x2="500" y2="500" gradientUnits="userSpaceOnUse">
<stop stop-color="#FFAE00"/>
<stop offset="1" stop-color="#FF3600"/>
</linearGradient>
<linearGradient id="paint3_linear_606_2059" x1="5" y1="8" x2="15.5689" y2="29.1979" gradientUnits="userSpaceOnUse">
<stop stop-color="#FFAE00"/>
<stop offset="1" stop-color="#FF3600"/>
</linearGradient>
<linearGradient id="paint4_linear_606_2059" x1="5.78932" y1="9.63783" x2="12.6206" y2="26.0116" gradientUnits="userSpaceOnUse">
<stop stop-color="#FFAE00"/>
<stop offset="1" stop-color="#FF3600"/>
</linearGradient>
</defs>
</svg>
