<svg width="32" height="32" viewBox="0 0 32 32" fill="none" xmlns="http://www.w3.org/2000/svg">
<g clip-path="url(#paint0_diamond_813_228_clip_path)" data-figma-skip-parse="true"><g transform="matrix(0.011 0.0181481 -0.021461 0.00713745 20 10.0741)"><rect x="0" y="0" width="791.357" height="513.992" fill="url(#paint0_diamond_813_228)" opacity="1" shape-rendering="crispEdges"/><rect x="0" y="0" width="791.357" height="513.992" transform="scale(1 -1)" fill="url(#paint0_diamond_813_228)" opacity="1" shape-rendering="crispEdges"/><rect x="0" y="0" width="791.357" height="513.992" transform="scale(-1 1)" fill="url(#paint0_diamond_813_228)" opacity="1" shape-rendering="crispEdges"/><rect x="0" y="0" width="791.357" height="513.992" transform="scale(-1)" fill="url(#paint0_diamond_813_228)" opacity="1" shape-rendering="crispEdges"/></g></g><path d="M18.833 22.6664L18.833 9.33337C18.833 8.68904 19.3557 8.16638 20 8.16638C20.6443 8.16638 21.167 8.68904 21.167 9.33337L21.167 22.6664C21.167 23.3107 20.6443 23.8334 20 23.8334C19.3557 23.8334 18.833 23.3107 18.833 22.6664Z" data-figma-gradient-fill="{&#34;type&#34;:&#34;GRADIENT_DIAMOND&#34;,&#34;stops&#34;:[{&#34;color&#34;:{&#34;r&#34;:1.0,&#34;g&#34;:0.68235296010971069,&#34;b&#34;:0.0,&#34;a&#34;:1.0},&#34;position&#34;:0.0},{&#34;color&#34;:{&#34;r&#34;:1.0,&#34;g&#34;:0.21176470816135406,&#34;b&#34;:0.0,&#34;a&#34;:1.0},&#34;position&#34;:1.0}],&#34;stopsVar&#34;:[],&#34;transform&#34;:{&#34;m00&#34;:22.0,&#34;m01&#34;:-42.922012329101562,&#34;m02&#34;:30.461006164550781,&#34;m10&#34;:36.296295166015625,&#34;m11&#34;:14.274893760681152,&#34;m12&#34;:-15.211479187011719},&#34;opacity&#34;:1.0,&#34;blendMode&#34;:&#34;NORMAL&#34;,&#34;visible&#34;:true}"/>
<g clip-path="url(#paint1_diamond_813_228_clip_path)" data-figma-skip-parse="true"><g transform="matrix(0.011 0.0181481 -0.021461 0.00713745 12 10.0741)"><rect x="0" y="0" width="791.357" height="513.992" fill="url(#paint1_diamond_813_228)" opacity="1" shape-rendering="crispEdges"/><rect x="0" y="0" width="791.357" height="513.992" transform="scale(1 -1)" fill="url(#paint1_diamond_813_228)" opacity="1" shape-rendering="crispEdges"/><rect x="0" y="0" width="791.357" height="513.992" transform="scale(-1 1)" fill="url(#paint1_diamond_813_228)" opacity="1" shape-rendering="crispEdges"/><rect x="0" y="0" width="791.357" height="513.992" transform="scale(-1)" fill="url(#paint1_diamond_813_228)" opacity="1" shape-rendering="crispEdges"/></g></g><path d="M10.833 22.6664L10.833 9.33337C10.833 8.68904 11.3557 8.16638 12 8.16638C12.6443 8.16638 13.167 8.68904 13.167 9.33337L13.167 22.6664C13.167 23.3107 12.6443 23.8334 12 23.8334C11.3557 23.8334 10.833 23.3107 10.833 22.6664Z" data-figma-gradient-fill="{&#34;type&#34;:&#34;GRADIENT_DIAMOND&#34;,&#34;stops&#34;:[{&#34;color&#34;:{&#34;r&#34;:1.0,&#34;g&#34;:0.68235296010971069,&#34;b&#34;:0.0,&#34;a&#34;:1.0},&#34;position&#34;:0.0},{&#34;color&#34;:{&#34;r&#34;:1.0,&#34;g&#34;:0.21176470816135406,&#34;b&#34;:0.0,&#34;a&#34;:1.0},&#34;position&#34;:1.0}],&#34;stopsVar&#34;:[],&#34;transform&#34;:{&#34;m00&#34;:22.0,&#34;m01&#34;:-42.922012329101562,&#34;m02&#34;:22.461006164550781,&#34;m10&#34;:36.296295166015625,&#34;m11&#34;:14.274893760681152,&#34;m12&#34;:-15.211479187011719},&#34;opacity&#34;:1.0,&#34;blendMode&#34;:&#34;NORMAL&#34;,&#34;visible&#34;:true}"/>
<defs>
<clipPath id="paint0_diamond_813_228_clip_path"><path d="M18.833 22.6664L18.833 9.33337C18.833 8.68904 19.3557 8.16638 20 8.16638C20.6443 8.16638 21.167 8.68904 21.167 9.33337L21.167 22.6664C21.167 23.3107 20.6443 23.8334 20 23.8334C19.3557 23.8334 18.833 23.3107 18.833 22.6664Z"/></clipPath><clipPath id="paint1_diamond_813_228_clip_path"><path d="M10.833 22.6664L10.833 9.33337C10.833 8.68904 11.3557 8.16638 12 8.16638C12.6443 8.16638 13.167 8.68904 13.167 9.33337L13.167 22.6664C13.167 23.3107 12.6443 23.8334 12 23.8334C11.3557 23.8334 10.833 23.3107 10.833 22.6664Z"/></clipPath><linearGradient id="paint0_diamond_813_228" x1="0" y1="0" x2="500" y2="500" gradientUnits="userSpaceOnUse">
<stop stop-color="#FFAE00"/>
<stop offset="1" stop-color="#FF3600"/>
</linearGradient>
<linearGradient id="paint1_diamond_813_228" x1="0" y1="0" x2="500" y2="500" gradientUnits="userSpaceOnUse">
<stop stop-color="#FFAE00"/>
<stop offset="1" stop-color="#FF3600"/>
</linearGradient>
</defs>
</svg>
